HIERARCHY
ROOT Pelvis
{
	OFFSET 0.000000 0.000000 0.000000
	CHANNELS 6 Xposition Yposition Zposition Xrotation Yrotation Zrotation
	JOINT LeftUpLeg_virtual
	{
		OFFSET 0.000000 0.000000 0.000000
		CHANNELS 3 Xrotation Yrotation Zrotation
		JOINT LeftUpLeg
		{
			OFFSET 8.479700 -4.795502 -0.379100
			CHANNELS 3 Xrotation Yrotation Zrotation
			JOINT LeftLeg
			{
				OFFSET 0.024144 -32.555107 0.112900
				CHANNELS 3 Xrotation Yrotation Zrotation
				JOINT LeftFoot
				{
					OFFSET -0.024144 -32.638630 -3.012600
					CHANNELS 3 Xrotation Yrotation Zrotation
					JOINT LeftToeBase
					{
						OFFSET 0.970200 -13.225400 11.864200
						CHANNELS 3 Xrotation Yrotation Zrotation
						End Site
						{
							OFFSET 0 0 0
						}
					}
				}
			}
		}
	}
	JOINT RightUpLeg_virtual
	{
		OFFSET 0.000000 0.000000 0.000000
		CHANNELS 3 Xrotation Yrotation Zrotation
		JOINT RightUpLeg
		{
			OFFSET -8.479700 -4.795502 -0.379100
			CHANNELS 3 Xrotation Yrotation Zrotation
			JOINT RightLeg
			{
				OFFSET -0.023144 -32.555092 0.112900
				CHANNELS 3 Xrotation Yrotation Zrotation
				JOINT RightFoot
				{
					OFFSET 0.023144 -32.638641 -3.012700
					CHANNELS 3 Xrotation Yrotation Zrotation
					JOINT RightToeBase
					{
						OFFSET -0.970200 -13.225400 11.864200
						CHANNELS 3 Xrotation Yrotation Zrotation
						End Site
						{
							OFFSET 0 0 0
						}
					}
				}
			}
		}
	}
	JOINT Hips_virtual
	{
		OFFSET 0.000000 0.000000 0.000000
		CHANNELS 3 Xrotation Yrotation Zrotation
		JOINT Hips
		{
			OFFSET -0.000000 -0.000000 -0.000000
			CHANNELS 3 Xrotation Yrotation Zrotation
			JOINT Spine
			{
				OFFSET 0.000000 7.722000 1.166200
				CHANNELS 3 Xrotation Yrotation Zrotation
				JOINT Spine1
				{
					OFFSET 0.000000 12.024101 0.248800
					CHANNELS 3 Xrotation Yrotation Zrotation
					JOINT Spine2
					{
						OFFSET 0.000000 11.502998 -0.491200
						CHANNELS 3 Xrotation Yrotation Zrotation
						JOINT Neck_virtual
						{
							OFFSET 0.000000 0.000000 0.000000
							CHANNELS 3 Xrotation Yrotation Zrotation
							JOINT Neck
							{
								OFFSET 0.000000 18.430702 -3.123100
								CHANNELS 3 Xrotation Yrotation Zrotation
								JOINT Head
								{
									OFFSET 0.000000 9.051102 1.034000
									CHANNELS 3 Xrotation Yrotation Zrotation
									End Site
									{
										OFFSET 0 0 0
									}
								}
							}
						}
						JOINT LeftShoulder_virtual
						{
							OFFSET 0.000000 0.000000 0.000000
							CHANNELS 3 Xrotation Yrotation Zrotation
							JOINT LeftShoulder
							{
								OFFSET 6.197800 13.665199 -4.064700
								CHANNELS 3 Xrotation Yrotation Zrotation
								JOINT LeftArm
								{
									OFFSET 7.778100 -0.187103 -1.709300
									CHANNELS 3 Xrotation Yrotation Zrotation
									JOINT LeftForeArm
									{
										OFFSET 22.049376 0.000000 0.000000
										CHANNELS 3 Xrotation Yrotation Zrotation
										JOINT LeftHand
										{
											OFFSET 23.009392 0.000000 0.000000
											CHANNELS 3 Xrotation Yrotation Zrotation
											End Site
											{
												OFFSET 0 0 0
											}
										}
									}
								}
							}
						}
						JOINT RightShoulder_virtual
						{
							OFFSET 0.000000 0.000000 0.000000
							CHANNELS 3 Xrotation Yrotation Zrotation
							JOINT RightShoulder
							{
								OFFSET -6.197800 13.665199 -4.064700
								CHANNELS 3 Xrotation Yrotation Zrotation
								JOINT RightArm
								{
									OFFSET -7.778100 -0.187103 -1.709300
									CHANNELS 3 Xrotation Yrotation Zrotation
									JOINT RightForeArm
									{
										OFFSET -22.049376 0.000000 0.000000
										CHANNELS 3 Xrotation Yrotation Zrotation
										JOINT RightHand
										{
											OFFSET -23.009392 0.000000 0.000000
											CHANNELS 3 Xrotation Yrotation Zrotation
											End Site
											{
												OFFSET 0 0 0
											}
										}
									}
								}
							}
						}
					}
				}
			}
		}
	}
}
MOTION
Frames: 12
Frame Time: 0.03333333
-0.111469 82.529381 0.476917 0.000000 0.000000 0.000000 -4.056189 6.163106 -1.770508 -2.722097 10.918894 10.710460 9.776139 -6.614841 0.228529 -4.246684 0.656858 -6.983839 0.000000 0.000000 0.000000 -4.056189 6.163106 -1.770508 -0.893758 -5.945862 1.761542 8.469546 3.424983 -0.555030 -3.331206 0.034535 0.279687 0.000000 0.000000 0.000000 -4.056189 6.163106 -1.770508 -0.000001 0.000000 0.000000 4.903445 -0.349184 1.227239 5.814412 -0.121248 1.891503 0.000000 0.000000 0.000000 -4.300226 -0.608020 -1.115062 1.348864 -1.122447 0.966616 0.000000 0.000000 0.000000 -4.300226 -0.608020 -1.115062 1.687379 -7.781276 -3.495010 -0.671930 -2.004020 -76.954218 6.346057 -10.905883 1.751773 0.000000 0.000000 0.000000 -4.300226 -0.608020 -1.115062 2.088909 10.213785 4.097141 1.436097 3.709013 75.271786 15.720273 15.338546 -4.555613 0.000000 0.000000 0.000000 
-0.114640 82.521835 0.506195 0.000000 0.000000 0.000000 -4.045348 5.951082 -1.796954 -2.701012 11.011064 10.767518 9.834333 -6.506056 0.189350 -4.332510 0.659807 -6.984977 0.000000 0.000000 0.000000 -4.045348 5.951082 -1.796954 -0.967273 -5.979970 1.739074 8.588624 3.670705 -0.482540 -3.377838 0.037518 0.207070 0.000000 0.000000 0.000000 -4.045348 5.951082 -1.796954 0.000000 0.000000 0.000000 5.236388 -0.322682 1.188649 5.633655 -0.121061 1.918716 0.000000 0.000000 0.000000 -4.352965 -0.591955 -1.049514 1.377147 -1.090217 0.931312 0.000000 0.000000 0.000000 -4.352965 -0.591955 -1.049514 1.651270 -7.731092 -3.681485 -0.695460 -2.100489 -76.810955 6.241780 -10.917067 1.584177 0.000000 0.000000 0.000000 -4.352965 -0.591955 -1.049514 2.064652 10.089337 4.140847 1.630636 4.074594 75.042120 15.586954 15.435705 -4.453116 0.000000 0.000000 0.000000 
-0.117937 82.511604 0.536642 0.000000 0.000000 0.000000 -3.951509 5.765965 -1.828030 -2.786036 11.033391 10.801510 9.936107 -6.360076 0.181483 -4.427808 0.664455 -7.000147 0.000000 0.000000 0.000000 -3.951509 5.765965 -1.828030 -1.165140 -5.966353 1.730887 8.770222 3.917830 -0.449545 -3.434177 0.038356 0.167451 0.000000 0.000000 0.000000 -3.951509 5.765965 -1.828030 0.000000 0.000000 0.000000 5.415850 -0.328339 1.206676 5.522213 -0.132480 1.904806 0.000000 0.000000 0.000000 -4.333487 -0.594682 -1.023816 1.247723 -1.042278 0.952613 0.000000 0.000000 0.000000 -4.333487 -0.594682 -1.023816 1.620308 -7.552167 -3.860861 -0.751193 -2.300624 -76.607156 6.273864 -11.004184 1.438892 0.000000 0.000000 0.000000 -4.333487 -0.594682 -1.023816 1.990162 10.065642 4.383189 2.016834 4.166795 74.641926 15.644905 15.971457 -4.499030 0.000000 0.000000 0.000000 
-0.139163 82.497963 0.569363 0.000000 0.000000 0.000000 -3.895697 5.564836 -1.869884 -2.857503 11.110822 10.892038 10.067121 -6.266517 0.147158 -4.543239 0.670062 -7.015534 0.000000 0.000000 0.000000 -3.895697 5.564836 -1.869884 -1.335589 -5.942735 1.744351 8.996352 4.052491 -0.393130 -3.519558 0.040256 0.093297 0.000000 0.000000 0.000000 -3.895697 5.564836 -1.869884 0.000000 0.000000 0.000000 5.796620 -0.335412 1.142955 5.242580 -0.156767 1.980717 0.000000 0.000000 0.000000 -4.477642 -0.616531 -0.907269 1.569828 -0.951847 0.854657 0.000000 0.000000 0.000000 -4.477642 -0.616531 -0.907269 1.575139 -7.497787 -4.111632 -0.649931 -2.291440 -76.423273 6.332389 -11.136895 1.329747 0.000000 0.000000 0.000000 -4.477642 -0.616531 -0.907269 1.992627 10.037302 4.259008 2.129316 4.477104 74.585714 15.564225 15.783220 -4.347647 0.000000 0.000000 0.000000 
-0.159190 82.482376 0.612103 0.000000 0.000000 0.000000 -3.787237 5.351951 -1.932242 -2.979764 11.080928 10.950691 10.251602 -6.032338 0.187528 -4.688962 0.681134 -7.077267 0.000000 0.000000 0.000000 -3.787237 5.351951 -1.932242 -1.580215 -5.932005 1.752871 9.258939 4.217715 -0.301699 -3.602985 0.044808 -0.001660 0.000000 0.000000 0.000000 -3.787237 5.351951 -1.932242 0.000001 0.000000 0.000000 5.962454 -0.338977 1.236333 5.138955 -0.169619 1.922761 0.000000 0.000000 0.000000 -4.445558 -0.615046 -0.923940 1.407160 -0.904689 0.903998 0.000000 0.000000 0.000000 -4.445558 -0.615046 -0.923940 1.548017 -7.340915 -4.191912 -0.740687 -2.457497 -76.268652 6.412174 -11.186914 1.166566 0.000000 0.000000 0.000000 -4.445558 -0.615046 -0.923940 1.962680 9.891854 4.427144 2.263378 4.863578 74.267884 15.700836 15.892047 -4.313912 0.000000 0.000000 0.000000 
-0.184619 82.466484 0.655756 0.000000 0.000000 0.000000 -3.752256 5.119687 -1.970151 -3.010563 11.138077 11.022583 10.386967 -5.857014 0.186507 -4.814918 0.690110 -7.122680 0.000000 0.000000 0.000000 -3.752256 5.119687 -1.970151 -1.756616 -5.935809 1.755437 9.540332 4.433089 -0.221643 -3.714532 0.051936 -0.139756 0.000000 0.000000 0.000000 -3.752256 5.119687 -1.970151 0.000000 0.000000 0.000000 6.319599 -0.341040 1.219645 4.883327 -0.193569 1.952658 0.000000 0.000000 0.000000 -4.560859 -0.632787 -0.851326 1.784522 -0.826885 0.954757 0.000000 0.000000 0.000000 -4.560859 -0.632787 -0.851326 1.495380 -7.353739 -4.438126 -0.638453 -2.396713 -76.037723 6.621759 -11.263957 1.075995 0.000000 0.000000 0.000000 -4.560859 -0.632787 -0.851326 1.907718 9.932374 4.533441 2.697034 5.188251 73.934721 15.533961 16.117681 -4.284249 0.000000 0.000000 0.000000 
-0.218856 82.448029 0.705082 0.000000 0.000000 0.000000 -3.656298 4.844542 -2.012388 -3.078952 11.141588 11.074586 10.525489 -5.607685 0.217811 -4.952497 0.702001 -7.199467 0.000000 0.000000 0.000000 -3.656298 4.844542 -2.012388 -2.039462 -5.872456 1.779585 9.895543 4.632460 -0.178946 -3.830549 0.055943 -0.238833 0.000000 0.000000 0.000000 -3.656298 4.844542 -2.012388 -0.000001 0.000000 0.000000 6.553820 -0.335716 1.233504 4.747527 -0.211358 1.960678 0.000000 0.000000 0.000000 -4.554510 -0.640238 -0.800481 1.568875 -0.722362 0.895328 0.000000 0.000000 0.000000 -4.554510 -0.640238 -0.800481 1.469709 -7.170368 -4.588168 -0.740861 -2.579954 -75.869017 6.765168 -11.226869 0.911233 0.000000 0.000000 0.000000 -4.554510 -0.640238 -0.800481 1.897159 9.753000 4.574659 2.761358 5.469276 73.688179 15.327303 16.216706 -4.177251 0.000000 0.000000 0.000000 
-0.264020 82.430153 0.764397 0.000000 0.000000 0.000000 -3.565818 4.577642 -2.057853 -3.148362 11.245696 11.180559 10.636814 -5.457509 0.194158 -5.079119 0.711257 -7.252987 0.000000 0.000000 0.000000 -3.565818 4.577642 -2.057853 -2.270722 -5.818094 1.821487 10.189020 4.824543 -0.126975 -3.947988 0.062102 -0.365035 0.000000 0.000000 0.000000 -3.565818 4.577642 -2.057853 0.000000 0.000000 0.000000 6.777944 -0.334581 1.249679 4.619897 -0.225990 1.956198 0.000000 0.000000 0.000000 -4.537643 -0.644602 -0.761146 1.493263 -0.660844 0.979768 0.000000 0.000000 0.000000 -4.537643 -0.644602 -0.761146 1.427921 -7.115117 -4.751216 -0.666496 -2.866928 -75.692751 6.735045 -11.544263 0.818647 0.000000 0.000000 0.000000 -4.537643 -0.644602 -0.761146 1.845991 9.571019 4.764595 3.159495 6.237954 73.224177 15.412715 16.495091 -4.280423 0.000000 0.000000 0.000000 
-0.320368 82.410194 0.827728 0.000000 0.000000 0.000000 -3.471564 4.321232 -2.074107 -3.175231 11.258417 11.223217 10.706234 -5.219536 0.222195 -5.185343 0.724383 -7.351579 0.000000 0.000000 0.000000 -3.471564 4.321232 -2.074107 -2.554997 -5.746309 1.856212 10.579932 4.963612 -0.106570 -4.117425 0.071523 -0.508118 0.000000 0.000000 0.000000 -3.471564 4.321232 -2.074107 0.000000 0.000000 0.000000 6.992414 -0.365973 1.204410 4.482987 -0.270838 1.988609 0.000000 0.000000 0.000000 -4.526552 -0.681911 -0.685798 1.377391 -0.542954 1.012011 0.000000 0.000000 0.000000 -4.526552 -0.681911 -0.685798 1.399209 -7.017515 -4.892699 -0.714871 -2.913299 -75.547070 6.798843 -11.543324 0.677545 0.000000 0.000000 0.000000 -4.526552 -0.681911 -0.685798 1.805813 9.500914 4.901583 3.450763 6.546487 72.839958 15.124592 16.856096 -4.265067 0.000000 0.000000 0.000000 
-0.394246 82.391251 0.902586 0.000000 0.000000 0.000000 -3.379316 3.996100 -2.128935 -3.205592 11.379217 11.353111 10.774237 -5.034398 0.208749 -5.307187 0.737811 -7.444009 0.000000 0.000000 0.000000 -3.379316 3.996100 -2.128935 -2.776101 -5.696338 1.921652 10.854631 5.239108 -0.037540 -4.216204 0.080480 -0.656265 0.000000 0.000000 0.000000 -3.379316 3.996100 -2.128935 0.000000 0.000000 0.000000 7.248478 -0.395828 1.245705 4.289743 -0.301511 1.955448 0.000000 0.000000 0.000000 -4.570920 -0.700876 -0.673633 1.592976 -0.469292 1.180208 0.000000 0.000000 0.000000 -4.570920 -0.700876 -0.673633 1.368446 -7.072824 -4.904317 -0.644643 -2.836066 -75.471090 6.928717 -11.637694 0.585786 0.000000 0.000000 0.000000 -4.570920 -0.700876 -0.673633 1.766701 9.418278 5.121394 3.914942 7.469053 72.396699 15.117673 17.035708 -4.390115 0.000000 0.000000 0.000000 
-0.473438 82.370758 0.981874 0.000000 0.000000 0.000000 -3.250840 3.688846 -2.167397 -3.237074 11.383166 11.421297 10.822069 -4.745235 0.256032 -5.416839 0.754767 -7.582126 0.000000 0.000000 0.000000 -3.250840 3.688846 -2.167397 -3.039700 -5.648552 1.982039 11.161963 5.460683 0.030168 -4.365845 0.097262 -0.858067 0.000000 0.000000 0.000000 -3.250840 3.688846 -2.167397 0.000000 0.000000 0.000000 7.369434 -0.443221 1.242910 4.195670 -0.356207 1.967418 0.000000 0.000000 0.000000 -4.512926 -0.746790 -0.618005 1.450878 -0.321877 1.209873 0.000000 0.000000 0.000000 -4.512926 -0.746790 -0.618005 1.330237 -7.014776 -5.058160 -0.717621 -2.720700 -75.275214 7.074262 -11.605005 0.452611 0.000000 0.000000 0.000000 -4.512926 -0.746790 -0.618005 1.705160 9.372393 5.363776 4.228288 7.755413 71.923354 14.944802 17.453729 -4.429942 0.000000 0.000000 0.000000 
-0.575555 82.350563 1.080633 0.000000 0.000000 0.000000 -3.180127 3.327073 -2.205069 -3.165832 11.489110 11.530955 10.802617 -4.476942 0.270139 -5.514349 0.771963 -7.727766 0.000000 0.000000 0.000000 -3.180127 3.327073 -2.205069 -3.202245 -5.560651 2.092904 11.412266 5.676929 0.047256 -4.506875 0.110890 -1.031502 0.000000 0.000000 0.000000 -3.180127 3.327073 -2.205069 0.000000 0.000000 0.000000 7.614280 -0.480789 1.202348 4.011853 -0.406164 1.999384 0.000000 0.000000 0.000000 -4.542292 -0.788375 -0.540223 1.620851 -0.201139 1.293700 0.000000 0.000000 0.000000 -4.542292 -0.788375 -0.540223 1.290527 -6.964942 -5.209390 -0.623250 -2.669852 -75.087924 7.178856 -11.668859 0.316058 0.000000 0.000000 0.000000 -4.542292 -0.788375 -0.540223 1.674777 9.291438 5.493629 4.609846 8.614755 71.548062 14.923009 17.549561 -4.536517 0.000000 0.000000 0.000000 
